<svg width="402" height="172" xmlns="http://www.w3.org/2000/svg">
  <path id="svg_1" d="m390.45,1.44c-6.78,2.03 -7.47,11.63 -1.05,14.63c3.2,1.48 6.21,1.1 8.74,-1.12c6.47,-5.68 0.6,-16 -7.69,-13.51m5.9,2c5.33,3.54 2.96,12.01 -3.36,12.01c-5.88,0 -8.69,-7.26 -4.39,-11.35c1.9,-1.8 5.55,-2.12 7.75,-0.66m-6.42,3.9l0.1,4.5c0.05,2.59 1.2,2.3 1.2,-0.3c0,-1.69 0.1,-1.95 0.79,-1.95c0.52,0 1.19,0.66 1.99,1.96c0.8,1.3 1.46,1.95 1.99,1.95c0.87,0 0.98,0.29 -1.1,-2.93c-0.39,-0.6 -0.46,-0.98 -0.2,-0.98c0.79,0 2,-1.54 2,-2.54c0,-1.78 -1.24,-2.53 -4.2,-2.53l-2.63,0l0.06,2.83m5.09,-1.02c0.42,1.09 -0.44,1.89 -2.16,2.02c-1.62,0.12 -1.63,0.12 -1.63,-1.27c0,-1.6 3.22,-2.23 3.79,-0.75m-353.4,3.54c-20.35,1.63 -35.56,16.32 -39.72,38.4c-1.06,5.59 -1.08,73.23 -0.02,78.8c4.11,21.73 18.5,36.15 38.31,38.36c5.26,0.58 308.16,0.58 313.41,0c19.65,-2.2 33.76,-16.14 38.13,-37.66c1.38,-6.8 1.36,-73.36 -0.02,-80.2c-4,-19.77 -15.86,-32.7 -33.87,-36.94l-3.52,-0.82l-155.47,-0.04c-85.5,-0.03 -156.26,0.02 -157.22,0.1m316.46,7.45c16.66,4.85 26.64,18.6 28.1,38.72c0.7,9.67 0.24,65.41 -0.58,69.57c-3.6,18.35 -15.2,30.8 -30.9,33.2c-1.9,0.29 -50,0.38 -159.57,0.3l-156.83,-0.1l-2.9,-0.9c-16.5,-5.12 -26.11,-18.32 -27.79,-38.17c-0.73,-8.62 -0.27,-65.9 0.57,-70.11c3.6,-18.17 14.54,-30.17 30.11,-33.03c2.2,-0.4 33.35,-0.49 159.77,-0.43l157.03,0.08l3,0.87m-142.95,34.46c-24.43,2.57 -39.56,19.13 -37.81,41.4c2.25,28.8 28.77,40.04 69.06,29.27l1.47,-0.39l0,-29.28l-0.87,0.22c-1.18,0.28 -9.24,0.42 -12.4,0.21l-2.54,-0.17l-0.1,12.34l-0.11,12.34l-2.47,0.99c-9,3.6 -20.36,1.41 -26.82,-5.17c-13.1,-13.35 -8.64,-45.22 7.44,-53.06c10.38,-5.06 24.22,-2.22 30.84,6.34c2.06,2.66 2.73,2.42 3.36,-1.17c0.24,-1.35 1.48,-5.3 2.29,-7.26c0.49,-1.21 -8.96,-4.9 -15.34,-6a73.1,73.1 0 0 0 -15.99,-0.6m-168.85,37.49l0,35.75l8.01,0l8,-0.02l0,-34.84l8.07,-0.28c4.43,-0.16 11.72,-0.16 16.2,0l8.16,0.28l0,34.87l16.02,0l0,-71.5l-16.02,0l0,28.2l-4.16,0.26c-2.3,0.14 -7.71,0.25 -12.05,0.25c-4.34,0 -9.76,-0.11 -12.05,-0.25l-4.16,-0.26l0,-28.2l-16.01,0l0,35.75m81.63,-0.2l0,35.74l40.68,0l-0.26,-0.84c-0.36,-1.1 -0.34,-6.24 0.01,-7.36c0.27,-0.85 0.21,-0.88 -1.42,-0.65c-2.57,0.36 -11.17,0.96 -17.43,1.21l-5.56,0.23l0,-26.66l11.03,0.2c6.07,0.12 11.54,0.34 12.16,0.5c1.04,0.25 1.1,0.21 0.81,-0.66c-0.38,-1.2 -0.38,-6.13 0,-7.33c0.29,-0.89 0.24,-0.91 -1.2,-0.67c-0.83,0.13 -6.3,0.35 -12.16,0.48l-10.64,0.24l0,-22.28l0.96,-0.24c1.14,-0.29 15.21,0.4 19.16,0.93c4.25,0.58 4.59,0.54 4.28,-0.44c-0.15,-0.46 -0.27,-2.1 -0.27,-3.65c0,-1.56 0.12,-3.2 0.27,-3.66l0.26,-0.84l-40.68,0l0,35.76m135.55,0l0,35.74l40.68,0l-0.27,-0.84c-0.35,-1.1 -0.34,-6.24 0.02,-7.36c0.27,-0.85 0.21,-0.88 -1.42,-0.65c-2.48,0.36 -11.43,0.97 -17.62,1.21l-5.37,0.21l0,-26.65l11.03,0.2c6.07,0.12 11.54,0.34 12.15,0.5c1.05,0.25 1.1,0.21 0.82,-0.66c-0.39,-1.2 -0.39,-6.13 0,-7.33c0.29,-0.89 0.24,-0.91 -1.2,-0.68c-0.84,0.14 -6.3,0.36 -12.16,0.5l-10.64,0.23l0,-22.27l1.2,-0.24c1.42,-0.28 15.4,0.4 19.08,0.93c4,0.58 4.42,0.54 4.11,-0.45c-0.14,-0.46 -0.26,-2.1 -0.26,-3.65c0,-1.56 0.12,-3.2 0.26,-3.66l0.27,-0.84l-40.68,0l0,35.76m53.52,0.1l0,35.64l40.1,0l-0.36,-2.38c-0.22,-1.48 -0.21,-3.2 0.01,-4.54l0.38,-2.16l-2.2,0.24c-4.88,0.54 -11.86,1 -16.84,1.1l-5.27,0.12l-0.1,-31.83l-0.1,-31.84l-15.62,0l0,35.64"/>
</svg>
